<svg width="120" height="25" viewBox="0 0 120 25" fill="none" xmlns="http://www.w3.org/2000/svg">
<path d="M21.7812 13C21.7812 13.7812 21.6354 14.5104 21.3438 15.1875C21.0521 15.8646 20.651 16.4583 20.1406 16.9688C19.6406 17.4688 19.0469 17.8646 18.3594 18.1562C17.6823 18.4479 16.9583 18.5938 16.1875 18.5938H3.92188C4.15104 19.0625 4.4375 19.4948 4.78125 19.8906C5.125 20.2865 5.51042 20.625 5.9375 20.9062C6.36458 21.1875 6.82812 21.4062 7.32812 21.5625C7.83854 21.7188 8.36979 21.7969 8.92188 21.7969H19.3906V25H8.92188C7.71354 24.9896 6.57812 24.7552 5.51562 24.2969C4.45312 23.8281 3.52604 23.1979 2.73438 22.4062C1.95312 21.6042 1.33333 20.6719 0.875 19.6094C0.416667 18.5469 0.1875 17.4115 0.1875 16.2031C0.1875 14.9948 0.416667 13.8594 0.875 12.7969C1.33333 11.7344 1.95312 10.8073 2.73438 10.0156C3.52604 9.21354 4.45312 8.58333 5.51562 8.125C6.57812 7.65625 7.71354 7.41667 8.92188 7.40625H16.1875C16.9583 7.40625 17.6823 7.55208 18.3594 7.84375C19.0469 8.13542 19.6406 8.53646 20.1406 9.04688C20.651 9.54688 21.0521 10.1354 21.3438 10.8125C21.6354 11.4896 21.7812 12.2188 21.7812 13ZM16.1875 15.4062C16.5104 15.4062 16.8177 15.3438 17.1094 15.2188C17.401 15.0938 17.6562 14.9219 17.875 14.7031C18.0938 14.4844 18.2656 14.2292 18.3906 13.9375C18.5156 13.6458 18.5781 13.3333 18.5781 13C18.5781 12.6771 18.5156 12.3698 18.3906 12.0781C18.2656 11.7865 18.0938 11.5312 17.875 11.3125C17.6562 11.0938 17.401 10.9219 17.1094 10.7969C16.8177 10.6615 16.5104 10.5938 16.1875 10.5938H8.92188C8.21354 10.5938 7.54688 10.7188 6.92188 10.9688C6.30729 11.2188 5.75521 11.5625 5.26562 12C4.78646 12.4271 4.38542 12.9375 4.0625 13.5312C3.75 14.1146 3.54688 14.7396 3.45312 15.4062H16.1875ZM17.5 3.20312L11.6406 5.3125L10.875 3.625L16.2812 0.453125L17.5 3.20312Z" fill="#F1F1F1"/>
<path d="M45.9919 16.2031C45.9919 17.4115 45.7627 18.5469 45.3044 19.6094C44.846 20.6719 44.221 21.6042 43.4294 22.4062C42.6377 23.1979 41.7106 23.8281 40.6481 24.2969C39.5856 24.7552 38.4502 24.9896 37.2419 25H25.2419V1H28.445V21.7969H37.2419C38.0127 21.7969 38.7315 21.651 39.3981 21.3594C40.0752 21.0573 40.6637 20.6562 41.1637 20.1562C41.6637 19.6458 42.0596 19.0521 42.3512 18.375C42.6429 17.6979 42.7887 16.974 42.7887 16.2031C42.7887 15.4323 42.6429 14.7083 42.3512 14.0312C42.0596 13.3542 41.6637 12.7656 41.1637 12.2656C40.6637 11.7552 40.0752 11.3542 39.3981 11.0625C38.7315 10.7604 38.0127 10.6042 37.2419 10.5938H30.0544V7.40625H37.2419C38.4502 7.40625 39.5856 7.64062 40.6481 8.10938C41.7106 8.56771 42.6377 9.19792 43.4294 10C44.221 10.7917 44.846 11.724 45.3044 12.7969C45.7627 13.8594 45.9919 14.9948 45.9919 16.2031Z" fill="#F1F1F1"/>
<path d="M69.8275 25H53.8275C53.0462 25 52.3171 24.8542 51.64 24.5625C50.9629 24.2708 50.3692 23.875 49.8587 23.375C49.3483 22.8646 48.9473 22.2708 48.6556 21.5938C48.364 20.9062 48.2181 20.1771 48.2181 19.4062C48.2181 18.625 48.364 17.8958 48.6556 17.2188C48.9473 16.5417 49.3483 15.9479 49.8587 15.4375C50.3692 14.9271 50.9629 14.526 51.64 14.2344C52.3171 13.9427 53.0462 13.7969 53.8275 13.7969H65.015V17H53.8275C53.4942 17 53.1817 17.0677 52.89 17.2031C52.5983 17.3281 52.3431 17.5 52.1244 17.7188C51.9056 17.9375 51.7337 18.1927 51.6087 18.4844C51.4837 18.776 51.4212 19.0833 51.4212 19.4062C51.4212 19.7396 51.4837 20.0521 51.6087 20.3438C51.7337 20.625 51.9056 20.875 52.1244 21.0938C52.3431 21.3125 52.5983 21.4844 52.89 21.6094C53.1817 21.7344 53.4942 21.7969 53.8275 21.7969H66.6244V13C66.6244 12.6771 66.5567 12.3698 66.4212 12.0781C66.2962 11.7865 66.1244 11.5312 65.9056 11.3125C65.6869 11.0938 65.4317 10.9219 65.14 10.7969C64.8483 10.6615 64.541 10.5938 64.2181 10.5938H51.4212V7.40625H64.2181C64.9994 7.40625 65.7285 7.55208 66.4056 7.84375C67.0827 8.13542 67.6765 8.53646 68.1869 9.04688C68.6973 9.54688 69.0983 10.1354 69.39 10.8125C69.6817 11.4896 69.8275 12.2188 69.8275 13V25Z" fill="#F1F1F1"/>
<path d="M95.3819 16.2031C95.3819 17.4115 95.1527 18.5469 94.6944 19.6094C94.236 20.6719 93.611 21.6042 92.8194 22.4062C92.0277 23.1979 91.1006 23.8281 90.0381 24.2969C88.9756 24.7552 87.8402 24.9896 86.6319 25H74.6319V1H77.835V21.7969H86.6319C87.4027 21.7969 88.1215 21.651 88.7881 21.3594C89.4652 21.0573 90.0537 20.6562 90.5537 20.1562C91.0537 19.6458 91.4496 19.0521 91.7412 18.375C92.0329 17.6979 92.1787 16.974 92.1787 16.2031C92.1787 15.4323 92.0329 14.7083 91.7412 14.0312C91.4496 13.3542 91.0537 12.7656 90.5537 12.2656C90.0537 11.7552 89.4652 11.3542 88.7881 11.0625C88.1215 10.7604 87.4027 10.6042 86.6319 10.5938H79.4444V7.40625H86.6319C87.8402 7.40625 88.9756 7.64062 90.0381 8.10938C91.1006 8.56771 92.0277 9.19792 92.8194 10C93.611 10.7917 94.236 11.724 94.6944 12.7969C95.1527 13.8594 95.3819 14.9948 95.3819 16.2031Z" fill="#F1F1F1"/>
<path d="M119.217 25H103.217C102.436 25 101.707 24.8542 101.03 24.5625C100.353 24.2708 99.7592 23.875 99.2487 23.375C98.7383 22.8646 98.3373 22.2708 98.0456 21.5938C97.754 20.9062 97.6081 20.1771 97.6081 19.4062C97.6081 18.625 97.754 17.8958 98.0456 17.2188C98.3373 16.5417 98.7383 15.9479 99.2487 15.4375C99.7592 14.9271 100.353 14.526 101.03 14.2344C101.707 13.9427 102.436 13.7969 103.217 13.7969H114.405V17H103.217C102.884 17 102.572 17.0677 102.28 17.2031C101.988 17.3281 101.733 17.5 101.514 17.7188C101.296 17.9375 101.124 18.1927 100.999 18.4844C100.874 18.776 100.811 19.0833 100.811 19.4062C100.811 19.7396 100.874 20.0521 100.999 20.3438C101.124 20.625 101.296 20.875 101.514 21.0938C101.733 21.3125 101.988 21.4844 102.28 21.6094C102.572 21.7344 102.884 21.7969 103.217 21.7969H116.014V13C116.014 12.6771 115.947 12.3698 115.811 12.0781C115.686 11.7865 115.514 11.5312 115.296 11.3125C115.077 11.0938 114.822 10.9219 114.53 10.7969C114.238 10.6615 113.931 10.5938 113.608 10.5938H100.811V7.40625H113.608C114.389 7.40625 115.119 7.55208 115.796 7.84375C116.473 8.13542 117.066 8.53646 117.577 9.04688C118.087 9.54688 118.488 10.1354 118.78 10.8125C119.072 11.4896 119.217 12.2188 119.217 13V25Z" fill="#F1F1F1"/>
</svg>
